<?xml version="1.0" encoding="UTF-8" standalone="no"?>
<!-- Created with Inkscape (http://www.inkscape.org/) -->

<svg
   width="512"
   height="512"
   viewBox="0 0 135.46666 135.46667"
   version="1.1"
   id="svg1"
   xml:space="preserve"
   inkscape:version="1.4.2 (f4327f4, 2025-05-13)"
   sodipodi:docname="cannon_base.svg"
   xmlns:inkscape="http://www.inkscape.org/namespaces/inkscape"
   xmlns:sodipodi="http://sodipodi.sourceforge.net/DTD/sodipodi-0.dtd"
   xmlns="http://www.w3.org/2000/svg"
   xmlns:svg="http://www.w3.org/2000/svg"><sodipodi:namedview
     id="namedview1"
     pagecolor="#505050"
     bordercolor="#eeeeee"
     borderopacity="1"
     inkscape:showpageshadow="0"
     inkscape:pageopacity="0"
     inkscape:pagecheckerboard="0"
     inkscape:deskcolor="#505050"
     inkscape:document-units="px"
     showgrid="true"
     inkscape:zoom="1.4051497"
     inkscape:cx="147.31527"
     inkscape:cy="265.45215"
     inkscape:window-width="1920"
     inkscape:window-height="1001"
     inkscape:window-x="-9"
     inkscape:window-y="-9"
     inkscape:window-maximized="1"
     inkscape:current-layer="layer1"><inkscape:grid
       id="grid1"
       units="px"
       originx="0"
       originy="0"
       spacingx="4.2333333"
       spacingy="4.2333333"
       empcolor="#0099e5"
       empopacity="0.30196078"
       color="#0099e5"
       opacity="0.14901961"
       empspacing="4"
       enabled="true"
       visible="true" /></sodipodi:namedview><defs
     id="defs1" /><g
     inkscape:label="Layer 1"
     inkscape:groupmode="layer"
     id="layer1"><path
       style="fill:#5a3d27;fill-opacity:1;stroke:none;stroke-width:1.72323;stroke-dasharray:none;stroke-opacity:1;paint-order:stroke fill markers"
       d="m 80.433332,63.499994 c 0,0 0,-4.233333 -4.233333,-4.233333 H 59.266666 L 12.7,88.899992 H 0 v 12.699998 h 21.166666 l 12.7,-8.466665 25.4,-16.933332 h 16.933333 c 4.233333,0 4.233333,-4.233333 4.233333,-4.233333"
       id="path541"
       sodipodi:nodetypes="cscccccccsc"
       inkscape:label="recoil-stopper" /><rect
       style="fill:#6f5232;fill-opacity:1;stroke:#282323;stroke-width:2.6458333;stroke-dasharray:none;stroke-opacity:1;paint-order:stroke fill markers"
       id="rect541-6"
       width="25.936285"
       height="6.9952097"
       x="68.452263"
       y="64.235725"
       inkscape:label="spoke-right" /><rect
       style="fill:#6f5232;fill-opacity:1;stroke:#282323;stroke-width:2.6458333;stroke-dasharray:none;stroke-opacity:1;paint-order:stroke fill markers"
       id="rect541"
       width="25.936285"
       height="6.9952097"
       x="41.078114"
       y="64.235725"
       inkscape:label="spoke-left" /><rect
       style="fill:#6f5232;fill-opacity:1;stroke:#282323;stroke-width:2.6458333;stroke-dasharray:none;stroke-opacity:1;paint-order:stroke fill markers"
       id="rect541-2-2"
       width="25.936285"
       height="6.9952097"
       x="67.197037"
       y="-71.230934"
       inkscape:label="spoke-bottom"
       transform="rotate(90)" /><rect
       style="fill:#6f5232;fill-opacity:1;stroke:#282323;stroke-width:2.6458333;stroke-dasharray:none;stroke-opacity:1;paint-order:stroke fill markers"
       id="rect541-2"
       width="25.936285"
       height="6.9952097"
       x="41.797043"
       y="-71.230934"
       inkscape:label="spoke-top"
       transform="rotate(90)" /><path
       id="path1"
       style="fill:#6f5232;stroke:#282323;stroke-width:2.12089997;stroke-dasharray:none;paint-order:stroke fill markers;fill-opacity:1"
       inkscape:label="outer-rim"
       d="M 67.733332 34.927067 A 32.806198 32.806198 0 0 0 34.927067 67.733332 A 32.806198 32.806198 0 0 0 67.733332 100.5396 A 32.806198 32.806198 0 0 0 100.5396 67.733332 A 32.806198 32.806198 0 0 0 67.733332 34.927067 z M 67.733332 41.078112 A 26.655048 26.655048 0 0 1 94.388553 67.733332 A 26.655048 26.655048 0 0 1 67.733332 94.388553 A 26.655048 26.655048 0 0 1 41.078112 67.733332 A 26.655048 26.655048 0 0 1 67.733332 41.078112 z " /><circle
       style="display:inline;fill:#6f5232;fill-opacity:1;stroke:#282323;stroke-width:11.0345;paint-order:stroke fill markers"
       id="path5"
       cx="96"
       cy="256"
       r="26.482759"
       inkscape:label="axle"
       transform="matrix(0.26458333,0,0,0.26458333,42.333333,-3.9052881e-6)" /></g></svg>
