<?xml version="1.0" encoding="UTF-8" standalone="no"?>
<svg
   width="128"
   height="128"
   version="1.1"
   id="svg6"
   sodipodi:docname="ammo_empty.svg"
   inkscape:version="1.4.2 (f4327f4, 2025-05-13)"
   xmlns:inkscape="http://www.inkscape.org/namespaces/inkscape"
   xmlns:sodipodi="http://sodipodi.sourceforge.net/DTD/sodipodi-0.dtd"
   xmlns="http://www.w3.org/2000/svg"
   xmlns:svg="http://www.w3.org/2000/svg">
  <defs
     id="defs6">
    <filter
       style="color-interpolation-filters:sRGB;"
       inkscape:label="Color Shift"
       id="filter17"
       x="0"
       y="0"
       width="1"
       height="1">
      <feColorMatrix
         type="hueRotate"
         values="330"
         result="color1"
         id="feColorMatrix16" />
      <feColorMatrix
         type="saturate"
         values="0"
         result="color2"
         id="feColorMatrix17" />
    </filter>
    <filter
       style="color-interpolation-filters:sRGB;"
       inkscape:label="Color Shift"
       id="filter19"
       x="0"
       y="0"
       width="1"
       height="1">
      <feColorMatrix
         type="hueRotate"
         values="330"
         result="color1"
         id="feColorMatrix18" />
      <feColorMatrix
         type="saturate"
         values="0"
         result="color2"
         id="feColorMatrix19" />
    </filter>
    <filter
       style="color-interpolation-filters:sRGB;"
       inkscape:label="Color Shift"
       id="filter21"
       x="-0.016129032"
       y="-0.016129032"
       width="1.0322581"
       height="1.0322581">
      <feColorMatrix
         type="hueRotate"
         values="330"
         result="color1"
         id="feColorMatrix20" />
      <feColorMatrix
         type="saturate"
         values="0"
         result="color2"
         id="feColorMatrix21" />
    </filter>
  </defs>
  <sodipodi:namedview
     id="namedview6"
     pagecolor="#505050"
     bordercolor="#eeeeee"
     borderopacity="1"
     inkscape:showpageshadow="0"
     inkscape:pageopacity="0"
     inkscape:pagecheckerboard="0"
     inkscape:deskcolor="#505050"
     inkscape:zoom="6.2890625"
     inkscape:cx="64"
     inkscape:cy="63.920497"
     inkscape:window-width="1920"
     inkscape:window-height="1001"
     inkscape:window-x="-9"
     inkscape:window-y="-9"
     inkscape:window-maximized="1"
     inkscape:current-layer="svg6" />
  <rect
     width="124"
     height="124"
     x="2"
     y="2"
     fill="#363d52"
     stroke="#212532"
     stroke-width="4"
     rx="14"
     id="rect1"
     style="filter:url(#filter21)" />
  <g
     fill="#fff"
     transform="translate(12.322 12.322)scale(.101)"
     id="g4"
     style="filter:url(#filter19);fill:#212532;fill-opacity:1">
    <path
       d="M105 673v33q407 354 814 0v-33z"
       id="path1"
       style="fill:#212532;fill-opacity:1" />
    <path
       fill="#478cbf"
       d="m105 673 152 14q12 1 15 14l4 67 132 10 8-61q2-11 15-15h162q13 4 15 15l8 61 132-10 4-67q3-13 15-14l152-14V427q30-39 56-81-35-59-83-108-43 20-82 47-40-37-88-64 7-51 8-102-59-28-123-42-26 43-46 89-49-7-98 0-20-46-46-89-64 14-123 42 1 51 8 102-48 27-88 64-39-27-82-47-48 49-83 108 26 42 56 81zm0 33v39c0 276 813 276 814 0v-39l-134 12-5 69q-2 10-14 13l-162 11q-12 0-16-11l-10-65H446l-10 65q-4 11-16 11l-162-11q-12-3-14-13l-5-69z"
       id="path2"
       style="fill:#212532;fill-opacity:1" />
    <path
       d="M483 600c0 34 58 34 58 0v-86c0-34-58-34-58 0z"
       id="path3"
       style="fill:#212532;fill-opacity:1" />
    <circle
       cx="725"
       cy="526"
       r="90"
       id="circle3"
       style="fill:#212532;fill-opacity:1" />
    <circle
       cx="299"
       cy="526"
       r="90"
       id="circle4"
       style="fill:#212532;fill-opacity:1" />
  </g>
  <g
     fill="#414042"
     transform="translate(12.322 12.322)scale(.101)"
     id="g6"
     style="filter:url(#filter17);fill:#212532;fill-opacity:1">
    <circle
       cx="307"
       cy="532"
       r="60"
       id="circle5"
       style="fill:#212532;fill-opacity:1" />
    <circle
       cx="717"
       cy="532"
       r="60"
       id="circle6"
       style="fill:#212532;fill-opacity:1" />
  </g>
</svg>
